<?xml version="1.0" standalone="no"?>
<!DOCTYPE svg PUBLIC "-//W3C//DTD SVG 20010904//EN"
 "http://www.w3.org/TR/2001/REC-SVG-20010904/DTD/svg10.dtd">
<svg version="1.0" xmlns="http://www.w3.org/2000/svg"
 width="512.000000pt" height="512.000000pt" viewBox="0 0 512.000000 512.000000"
 preserveAspectRatio="xMidYMid meet">
<metadata>
Created by potrace 1.11, written by Peter Selinger 2001-2013
</metadata>
<g transform="translate(0.000000,512.000000) scale(0.100000,-0.100000)"
fill="#000000" stroke="none">
<path d="M3759 4966 c-2 -2 -60 -7 -128 -10 -69 -4 -127 -8 -130 -10 -3 -2
-40 -6 -81 -10 -41 -3 -85 -8 -98 -11 -13 -2 -57 -9 -98 -15 -236 -32 -584
-126 -786 -212 -194 -82 -426 -217 -573 -332 -135 -106 -340 -322 -518 -546
-83 -105 -246 -343 -274 -400 -4 -8 -20 -37 -36 -65 -178 -301 -323 -703 -374
-1040 -24 -160 -23 -488 2 -609 54 -263 144 -456 294 -631 33 -38 60 -73 61
-77 1 -18 -482 -390 -804 -621 l-66 -47 48 -68 c27 -37 56 -77 64 -90 l15 -23
189 138 c171 124 450 336 530 402 17 14 40 33 50 41 50 39 121 96 138 112 18
17 21 17 50 -1 130 -78 307 -146 436 -167 14 -2 35 -6 47 -9 87 -20 365 -27
508 -13 411 40 905 228 1330 506 299 196 636 489 806 702 190 236 356 573 449
905 31 110 40 147 45 177 3 18 10 47 14 63 5 17 12 48 16 70 4 22 9 51 11 65
26 150 31 184 49 365 27 257 26 830 0 1040 -3 17 -7 66 -11 110 -3 44 -8 83
-10 86 -2 3 -6 30 -9 60 -8 76 -10 88 -16 94 -8 8 -96 23 -174 30 -38 3 -79 8
-90 10 -11 2 -58 7 -105 10 -47 4 -101 9 -120 11 -44 6 -646 15 -651 10z"/>
</g>
</svg>
