<svg width="32" height="32" xmlns="http://www.w3.org/2000/svg">
 <title/>

 <g>
  <title>background</title>
  <rect fill="none" id="canvas_background" height="402" width="582" y="-1" x="-1"/>
 </g>
 <g>
  <title>Layer 1</title>
  <path fill="#272e36" id="svg_1" d="m27.18,4l-11,-2a1.09,1.09 0 0 0 -0.36,0l-11,2a1,1 0 0 0 -0.82,1l0,14c0,7.68 11.26,10.83 11.74,11a0.87,0.87 0 0 0 0.52,0c0.48,-0.17 11.74,-3.32 11.74,-11l0,-14a1,1 0 0 0 -0.82,-1zm-1.18,15c0,5.59 -8.39,8.46 -10,9c-1.61,-0.5 -10,-3.37 -10,-9l0,-13.17l10,-1.83l10,1.83l0,13.17z"/>
  <path fill="#2a7cbb" id="svg_2" d="m10.71,15.29a1,1 0 0 0 -1.42,1.42l4,4a1,1 0 0 0 1.42,0l8,-8a1,1 0 0 0 -1.42,-1.42l-7.29,7.3l-3.29,-3.3z"/>
 </g>
</svg>