<svg width="512" height="512" xmlns="http://www.w3.org/2000/svg">

 <g>
  <title>background</title>
  <rect fill="none" id="canvas_background" height="402" width="582" y="-1" x="-1"/>
 </g>
 <g>
  <title>Layer 1</title>
  <path fill="none" stroke-linejoin="round" stroke-linecap="round" stroke-width="31.9998" stroke="#2a7cbb" id="svg_1" d="m476,336c11,0 20,9 20,20c0,11 -9,20 -20,20l-8,0c11,0 20,9 20,20c0,11 -9,20 -20,20l-8,0c11,0 20,9 20,20c0,11 -9,20 -20,20l-8,0c11,0 20,9 20,20c0,11 -9,20 -20,20l-20,0l-72,0l-40,-16l0,16l-48,0l0,-160l48,0l0,16c32,-16 56,-48 56,-88c0,-12 6,-24 21,-24c25,0 27,32 27,48c0,16 -3,33 -8,48l40,0l20,0z" class="fil0 str0"/>
  <path fill="none" stroke-linejoin="round" stroke-linecap="round" stroke-width="31.9998" stroke="#272e36" id="svg_2" d="m272,284c14,-12 24,-28 29,-46c20,-6 35,-24 35,-46c0,-17 -8,-31 -21,-40c3,-10 5,-21 5,-32c0,-57 -47,-104 -104,-104c-57,0 -104,47 -104,104c0,11 2,22 5,32c-13,9 -21,23 -21,40c0,22 15,40 35,46c5,18 15,34 29,46l0,20c0,64 -144,64 -144,128l192,0" class="fil0 str1"/>
  <ellipse id="svg_3" cy="346.061992" cx="283.634363" stroke-width="1.5" stroke="#000" fill="#fff"/>
 </g>
</svg>