<svg width="65" height="65" xmlns="http://www.w3.org/2000/svg">

 <g>
  <title>background</title>
  <rect fill="none" id="canvas_background" height="402" width="582" y="-1" x="-1"/>
 </g>
 <g>
  <title>Layer 1</title>
  <path id="svg_3" fill="#ffbe06" d="m26.585,53.787c-0.503,0.426 -1.149,0.803 -1.914,1.112c0.689,0.384 1.063,0.768 1.063,0.979c0,0.528 -2.213,2.121 -6.241,2.121s-6.241,-1.593 -6.241,-2.121c0,-0.212 0.374,-0.596 1.063,-0.979c-0.765,-0.31 -1.411,-0.687 -1.914,-1.112c-0.726,0.614 -1.149,1.327 -1.149,2.092c0,2.276 3.69,4.121 8.241,4.121s8.241,-1.845 8.241,-4.121c0.001,-0.765 -0.423,-1.478 -1.149,-2.092z"/>
  <path id="svg_4" fill="#ffbe06" d="m26.585,49.604c-0.503,0.425 -1.15,0.803 -1.915,1.112c0.69,0.384 1.064,0.768 1.064,0.979c0,0.527 -2.213,2.12 -6.241,2.12s-6.241,-1.593 -6.241,-2.12c0,-0.212 0.375,-0.596 1.064,-0.979c-0.765,-0.31 -1.411,-0.688 -1.915,-1.112c-0.726,0.613 -1.15,1.327 -1.15,2.092c0,2.275 3.69,4.12 8.241,4.12s8.241,-1.845 8.241,-4.12c0.002,-0.764 -0.422,-1.478 -1.148,-2.092z"/>
  <path id="svg_5" fill="#ffbe06" d="m19.494,45.393c4.027,0 6.241,1.592 6.241,2.119c0,0.528 -2.213,2.121 -6.241,2.121s-6.241,-1.593 -6.241,-2.121c0,-0.528 2.214,-2.119 6.241,-2.119m0,-2c-4.551,0 -8.241,1.844 -8.241,4.119c0,2.276 3.69,4.121 8.241,4.121s8.241,-1.845 8.241,-4.121c0,-2.276 -3.69,-4.119 -8.241,-4.119l0,0z"/>
  <path id="svg_6" fill="#ffbe06" d="m54.477,53.787c-0.503,0.426 -1.149,0.804 -1.914,1.112c0.689,0.384 1.063,0.768 1.063,0.979c0,0.528 -2.213,2.121 -6.24,2.121c-4.028,0 -6.241,-1.593 -6.241,-2.121c0,-0.212 0.374,-0.596 1.063,-0.979c-0.765,-0.31 -1.411,-0.687 -1.914,-1.112c-0.726,0.614 -1.15,1.327 -1.15,2.092c0,2.276 3.69,4.121 8.241,4.121s8.24,-1.845 8.24,-4.121c0.001,-0.765 -0.423,-1.478 -1.148,-2.092z"/>
  <path id="svg_7" fill="#ffbe06" d="m47.386,49.576c4.027,0 6.24,1.593 6.24,2.12s-2.213,2.12 -6.24,2.12c-4.028,0 -6.241,-1.593 -6.241,-2.12s2.213,-2.12 6.241,-2.12m0,-2c-4.551,0 -8.241,1.844 -8.241,4.12c0,2.275 3.69,4.12 8.241,4.12s8.24,-1.845 8.24,-4.12c0,-2.276 -3.689,-4.12 -8.24,-4.12l0,0z"/>
  <path id="svg_8" fill="#ffbe06" d="m40.531,53.787c-0.503,0.426 -1.149,0.803 -1.914,1.112c0.689,0.384 1.063,0.768 1.063,0.979c0,0.528 -2.213,2.121 -6.241,2.121c-4.027,0 -6.241,-1.593 -6.241,-2.121c0,-0.212 0.374,-0.596 1.063,-0.979c-0.765,-0.31 -1.411,-0.687 -1.914,-1.112c-0.726,0.614 -1.149,1.327 -1.149,2.092c0,2.276 3.69,4.121 8.241,4.121s8.241,-1.845 8.241,-4.121c0.001,-0.765 -0.423,-1.478 -1.149,-2.092z"/>
  <path id="svg_9" fill="#ffbe06" d="m40.53,49.604c-0.503,0.425 -1.149,0.803 -1.914,1.112c0.69,0.384 1.064,0.768 1.064,0.979c0,0.527 -2.213,2.12 -6.241,2.12c-4.027,0 -6.241,-1.593 -6.241,-2.12c0,-0.212 0.375,-0.596 1.064,-0.979c-0.765,-0.31 -1.411,-0.688 -1.915,-1.112c-0.726,0.613 -1.15,1.327 -1.15,2.092c0,2.275 3.69,4.12 8.241,4.12s8.241,-1.845 8.241,-4.12c0.002,-0.764 -0.423,-1.478 -1.149,-2.092z"/>
  <path id="svg_10" fill="#ffbe06" d="m40.531,45.42c-0.503,0.426 -1.149,0.804 -1.914,1.112c0.69,0.384 1.064,0.768 1.064,0.979c0,0.528 -2.213,2.121 -6.241,2.121c-4.027,0 -6.241,-1.593 -6.241,-2.121c0,-0.212 0.374,-0.596 1.064,-0.979c-0.765,-0.309 -1.411,-0.687 -1.914,-1.112c-0.726,0.614 -1.15,1.327 -1.15,2.092c0,2.276 3.69,4.121 8.241,4.121s8.241,-1.845 8.241,-4.121c0,-0.765 -0.425,-1.478 -1.15,-2.092z"/>
  <path id="svg_11" fill="#ffbe06" d="m40.53,41.236c-0.503,0.426 -1.149,0.803 -1.914,1.112c0.69,0.384 1.064,0.768 1.064,0.979c0,0.528 -2.213,2.121 -6.241,2.121c-4.027,0 -6.241,-1.593 -6.241,-2.121c0,-0.212 0.374,-0.596 1.064,-0.979c-0.765,-0.31 -1.411,-0.687 -1.914,-1.112c-0.726,0.613 -1.15,1.327 -1.15,2.092c0,2.276 3.69,4.121 8.241,4.121s8.241,-1.845 8.241,-4.121c0.001,-0.765 -0.424,-1.478 -1.15,-2.092z"/>
  <path id="svg_12" fill="#ffbe06" d="m33.439,37.025c4.028,0 6.241,1.592 6.241,2.119c0,0.528 -2.213,2.121 -6.241,2.121c-4.027,0 -6.241,-1.593 -6.241,-2.121c0.001,-0.527 2.214,-2.119 6.241,-2.119m0,-2c-4.551,0 -8.241,1.844 -8.241,4.119s3.69,4.121 8.241,4.121s8.241,-1.846 8.241,-4.121s-3.69,-4.119 -8.241,-4.119l0,0z"/>
  <line id="svg_14" y2="33" y1="47" x2="46" x1="46" fill="#FFFFFF"/>
  <path id="svg_15" fill="#00A651" d="m46.10169,48c-0.552,0 -1,-0.447 -1,-1l0,-14c0,-0.553 0.448,-1 1,-1s1,0.447 1,1l0,14c0,0.553 -0.448,1 -1,1z"/>
  <path id="svg_17" fill="#00A651" d="m46.262,33c-0.006,0 -0.013,0 -0.02,0c-0.019,0 -0.038,0.115 -0.056,0.114c-0.292,-0.016 -7.189,-0.397 -11.807,-5.015c-4.617,-4.617 -5.056,-11.485 -5.072,-11.776c-0.016,-0.285 0.09,-0.548 0.292,-0.749c0.201,-0.201 0.486,-0.298 0.763,-0.283c0.292,0.016 7.189,0.457 11.806,5.075c4.22,4.219 4.95,10.346 5.057,11.592c0.024,0.087 0.038,0.063 0.038,0.157c-0.001,0.553 -0.449,0.885 -1.001,0.885zm-14.81,-15.558c0.328,2.054 1.344,6.305 4.341,9.302c3.009,3.009 7.252,4.02 9.303,4.344c-0.328,-2.054 -1.344,-6.306 -4.342,-9.304c-2.998,-2.998 -7.248,-4.013 -9.302,-4.342z"/>
  <path id="svg_19" fill="#00A651" d="m46.343,45.785c-0.264,0 -0.519,-0.104 -0.707,-0.293c-0.211,-0.211 -0.317,-0.506 -0.289,-0.803c0.023,-0.24 0.611,-5.916 4.546,-9.85c3.935,-3.937 9.61,-4.523 9.85,-4.546c0.294,-0.029 0.591,0.076 0.803,0.288c0.211,0.211 0.317,0.506 0.289,0.803c-0.023,0.24 -0.612,5.914 -4.546,9.85c-3.935,3.935 -9.609,4.523 -9.849,4.546c-0.033,0.003 -0.065,0.005 -0.097,0.005zm12.272,-13.269c-1.768,0.391 -4.952,1.383 -7.307,3.738c-2.364,2.364 -3.353,5.539 -3.74,7.304c1.768,-0.391 4.952,-1.383 7.307,-3.737c2.364,-2.365 3.352,-5.541 3.74,-7.305z"/>
  <text font-style="normal" font-weight="normal" xml:space="preserve" text-anchor="start" font-family="Oswald, sans-serif" font-size="26" id="svg_20" y="36.105783" x="10.733147" stroke-opacity="null" stroke-width="0" stroke="null" fill="#2a7cbb">P</text>
  <line stroke="#2a7cbb" stroke-linecap="null" stroke-linejoin="null" id="svg_29" y2="31.733129" x2="21.003797" y1="31.733129" x1="10.229496" fill-opacity="null" stroke-width="2.2" fill="none"/>
  <line stroke="#2a7cbb" stroke-linecap="null" stroke-linejoin="null" id="svg_30" y2="27.452812" x2="16.846275" y1="27.452812" x1="10.134761" fill-opacity="null" stroke-width="2.1" fill="none"/>
 </g>
</svg>